PathFileType	3	(X/Y/Z)	results
DataRate	CameraRate	NumFrames	NumMarkers	Units	OrigDataRate	OrigDataStartFrame	OrigNumFrames
30.0	30.0	4	85	mm	30.0	93	369
Frame#	Time	head			nose			neck			shoulder_r			elbow_r			wrist_r			shoulder_l			elbow_l			wrist_l			hip_r			knee_r			ankle_r			hip_l			knee_l			ankle_l			heel_r			heel_l			mtoe_r			ltoe_r			mtoe_l			ltoe_l			asis_l			asis_r			psi_r			psi_l			mhnd_r			lhnd_r			mhnd_l			lhnd_l			l_lat_knee			r_med_wrist			l_lat_ankle			r_med_ankle			r_lat_knee			xiphoid			l_med_ankle			r_med_knee			l_med_elbow			navel			r_lat_elbow			r_lat_wrist			l_med_wrist			l_lat_elbow			l_med_knee			r_med_elbow			r_lat_ankle			l_lat_wrist			chin			T10			r_eye			l_eye			l_ear			r_ear			spinal_cord_8			spinal_cord_12			spinal_cord_27			spinal_cord_33			up_arm_r_0			up_arm_r_5			up_arm_l_0			up_arm_l_5			front_torso_11			front_torso_7			front_torso_4			front_torso_1			front_torso_10			thigh_r_2			thigh_r_3			thigh_l_1			thigh_l_5			shank_l_0			shank_l_4			shank_r_1			shank_r_2			foot_r_1			foot_r_3			foot_r_5			foot_r_6			foot_r_7			foot_l_1			foot_l_7			foot_l_0			foot_l_4			foot_l_5			foot_l_6			
		X1	Y1	Z1	X2	Y2	Z2	X3	Y3	Z3	X4	Y4	Z4	X5	Y5	Z5	X6	Y6	Z6	X7	Y7	Z7	X8	Y8	Z8	X9	Y9	Z9	X10	Y10	Z10	X11	Y11	Z11	X12	Y12	Z12	X13	Y13	Z13	X14	Y14	Z14	X15	Y15	Z15	X16	Y16	Z16	X17	Y17	Z17	X18	Y18	Z18	X19	Y19	Z19	X20	Y20	Z20	X21	Y21	Z21	X22	Y22	Z22	X23	Y23	Z23	X24	Y24	Z24	X25	Y25	Z25	X26	Y26	Z26	X27	Y27	Z27	X28	Y28	Z28	X29	Y29	Z29	X30	Y30	Z30	X31	Y31	Z31	X32	Y32	Z32	X33	Y33	Z33	X34	Y34	Z34	X35	Y35	Z35	X36	Y36	Z36	X37	Y37	Z37	X38	Y38	Z38	X39	Y39	Z39	X40	Y40	Z40	X41	Y41	Z41	X42	Y42	Z42	X43	Y43	Z43	X44	Y44	Z44	X45	Y45	Z45	X46	Y46	Z46	X47	Y47	Z47	X48	Y48	Z48	X49	Y49	Z49	X50	Y50	Z50	X51	Y51	Z51	X52	Y52	Z52	X53	Y53	Z53	X54	Y54	Z54	X55	Y55	Z55	X56	Y56	Z56	X57	Y57	Z57	X58	Y58	Z58	X59	Y59	Z59	X60	Y60	Z60	X61	Y61	Z61	X62	Y62	Z62	X63	Y63	Z63	X64	Y64	Z64	X65	Y65	Z65	X66	Y66	Z66	X67	Y67	Z67	X68	Y68	Z68	X69	Y69	Z69	X70	Y70	Z70	X71	Y71	Z71	X72	Y72	Z72	X73	Y73	Z73	X74	Y74	Z74	X75	Y75	Z75	X76	Y76	Z76	X77	Y77	Z77	X78	Y78	Z78	X79	Y79	Z79	X80	Y80	Z80	X81	Y81	Z81	X82	Y82	Z82	X83	Y83	Z83	X84	Y84	Z84	X85	Y85	Z85	
93	3.1	94.59654287406065	1693.8120989171553	-202.28361835603909	55.47014948254581	1530.1325692321734	-335.69946704635345	64.23943094269104	1369.685506088253	-193.9759227821235	215.42948514723972	1337.1260665734844	-207.26907490220688	263.46322920057906	1124.1431398304553	-353.16458601055257	111.94687877806054	1291.741366493452	-399.27409836336255	-73.4558158676475	1331.1044222208175	-195.18860923468415	-131.71278408611752	1135.5636469815001	-332.68382152187826	2.2072232325752172	1294.0116783202507	-398.2661530049436	146.79881205157787	878.7318759521067	-239.05628331641293	160.66672983040695	485.08934919242284	-166.08377228411442	213.4857688553156	110.08389789002543	-159.44726962316153	-41.976132263200604	871.5383255889355	-234.40997336425258	-48.73404515548365	482.02378394320823	-164.82243813234987	-100.03440873801829	105.44136415857774	-154.28494603955568	214.19523728150125	55.44326393507498	-142.86131987977922	-109.38956011931376	44.30186122743516	-130.05644168738095	245.54468065044063	36.826773541188714	-359.2825034127716	300.2574771230494	46.29838769236658	-292.37936899514904	-122.30738192412035	41.935726131494526	-355.1238287765938	-196.21834535025107	34.971375816508946	-291.89197188570506	-87.13052373417582	934.6713488805342	-263.68159826365326	189.46424924908263	941.9688662738497	-267.83409184705	99.47526314236931	942.3358277330187	-138.92259516412972	5.172582266224975	939.0371867835373	-141.94136763633966	54.45866234948924	1322.0518683117061	-433.3044704719684	67.69505686407581	1366.2316575674895	-406.0650443341949	53.31207715951382	1328.4492845771965	-443.17675288011804	49.349333194853855	1368.1013275107468	-407.57114271579314	-99.54256761372515	477.6991126677727	-155.5582034045009	110.33973515198974	1272.1510921760314	-420.61186185616344	-152.30720329239432	98.0218386806736	-143.48908726507673	181.6329492310506	96.03765719984936	-173.03459379697577	205.2715104709904	476.6280314995579	-161.8312536333718	67.27030217110008	1207.8507381875427	-297.3017033866412	-74.19712254875544	90.14067983391544	-170.99755816226926	119.60981122801908	474.8399939085771	-178.34921066044413	-113.05600701657917	1122.6407165535122	-307.5934367594832	61.02886200217085	992.6583606944636	-324.69137786255567	287.4169664002082	1150.4073207715235	-371.8283006177476	121.03743175978782	1298.1357604260932	-369.27412170939374	-5.367640882786184	1277.621176310381	-422.5622264944464	-156.39266966352196	1162.2214099737369	-341.7550440057632	-11.74478980010035	473.4410808886564	-198.7989315242841	239.77653121392754	1109.543629132879	-328.76150288886174	261.5418907002704	98.8614731927539	-161.33218298378557	-9.06854906281257	1304.2036211736595	-373.4079559601525	53.99695231360656	1452.3395618856414	-322.3787403995909	56.723473590700436	1207.9026228348591	-103.99252799557567	90.49303356894593	1559.8247513939723	-339.4989020258969	22.28786040092466	1563.5140110433588	-325.53573462604334	-9.75801941863637	1552.1718587652729	-214.8528094417436	159.68897545742206	1539.6650799589488	-247.1884609223972	62.659625322716515	1425.321344350912	-142.4085991747607	56.64791080832549	1306.730058768875	-98.37864420276304	65.34556069532887	1058.9898437437885	-127.82672704502882	57.13887279518005	1199.1353275180595	-117.38069907752241	215.2242529280903	1250.584187899668	-314.4380589690243	277.5687509332956	1202.9348186670468	-273.08003628610714	-107.22612054187012	1304.9349746008038	-232.45683146923005	-105.69435667451016	1166.353243020061	-264.8041398368264	103.32452778364218	1016.8946417850706	-281.76936206930634	68.11515367014401	1123.7712814054423	-332.4336562993188	9.778600620215016	1254.156461604205	-303.6030346195739	-2.7242179286681156	1052.7090745004396	-289.8451944372715	142.44223040919323	1292.298902009828	-301.86069277158657	136.7674279991639	662.695763451264	-205.24009878805637	235.38714495936287	632.785227770325	-182.04582368938898	-1.6405837762225248	589.2918751591886	-199.56755760577778	-147.53447855925745	768.1651528876148	-207.85852731867357	-153.7602466745477	205.46648589549133	-157.69434252011447	-22.626400110526188	329.94227856724456	-171.44972441678513	239.73861963540477	332.3298668451745	-160.39878963432128	149.62134534960836	283.82927745025455	-168.54888895514196	266.1572856961475	34.57576833061016	-338.2281696523609	286.40765071177526	41.081619663656085	-318.9800158422672	220.25044234493552	49.00032163196808	-282.25839161217914	252.3219491382911	62.16503185825184	-264.8869997700183	282.198578912729	54.953906101106206	-248.1502979492421	-169.33094075258387	33.292632780756215	-324.5602656353219	-174.53314281700395	64.96968854828067	-218.90304604587223	-183.24289882493883	34.42794540352775	-315.28803177865973	-152.1785189730295	31.869059973374565	-335.3108418454202	-151.9582419476557	48.20371967886085	-276.91953504655515	-117.90045774608917	57.86134261210991	-250.60261086901292	
94	3.1333333333333333	93.0867118038642	1694.3117114095467	-203.14515150353623	55.128895055093906	1529.5063605211858	-335.5084857230711	64.82380098972865	1369.9695860365937	-193.405285634952	216.26000633393795	1337.8901613489554	-206.95738403888785	263.384025452415	1125.1255917154906	-353.4668804689199	111.52234965974017	1291.7095571831298	-402.04950112560664	-76.26151728671385	1331.538161873964	-194.7265067677162	-131.9969312576005	1135.5832371455951	-332.67661961034855	1.7810354432445663	1294.1590889968215	-398.2399022704215	147.03202078519615	878.0942854358409	-238.1777871234206	160.2115727468403	484.3974606219529	-165.3708168171308	214.19564404647596	109.54714253124614	-159.3756828894933	-41.761405230580344	870.7756367924458	-234.6008276175281	-49.97255071188648	481.3331001537791	-164.76702243609964	-100.35536981821669	104.621311554638	-154.42851173636944	215.37456245116593	54.959808379342526	-142.6780256001824	-109.55260988356598	43.386492757564994	-130.27694051802675	244.82394027314643	36.51754014927786	-359.38083334474726	300.0067029647656	47.54891121661473	-293.10563042933137	-123.02443518276975	41.669368165963355	-355.3177342708112	-196.78658559577505	34.59432748121762	-291.92460071900695	-86.79150392039561	933.2952964191547	-265.3434380377378	189.81664405928512	940.8266674609906	-267.8685768868707	99.00445422676277	943.5181679424567	-139.56336163340757	4.726404200462116	940.0564681754649	-143.12082670590624	54.19882861098027	1321.5235789288854	-436.78889974416086	66.99554951532812	1365.9482905166635	-409.73836945018314	53.0374569485705	1328.5484600266586	-443.01452918557015	48.72961108897142	1368.3609655495459	-407.6287383685282	-100.79505563929503	477.2057652372055	-155.48947531884627	110.19129423607923	1271.9670568245112	-423.2656242490804	-152.60843499705433	97.06876355397226	-143.62938336258154	182.03904246066662	95.38931922127352	-172.10452365846197	204.7551443779098	475.98046672051316	-160.44245928343068	66.98612624153371	1208.743361746246	-297.69969665489504	-74.48331385059974	89.39266091079779	-171.1531230014924	119.35892856243728	474.11530839580837	-178.27429061925451	-113.50831215577227	1122.7851090736906	-307.3984917018834	60.1382987894508	993.7308947614229	-326.32932247657743	287.42621089142915	1151.3489306644074	-372.0742118992776	120.32002025994454	1298.349982646478	-372.0156740602113	-5.593801226516593	1277.6242016407969	-422.4996548191797	-156.74715159116522	1162.0874569172179	-342.0025557539065	-13.023070280463369	472.58972091720483	-198.7458264476277	239.6572374854391	1110.5500399332414	-329.0884337797485	262.21677049750764	98.44803452647766	-162.4849878138526	-9.676932511967745	1304.4346419158871	-373.4997187050748	54.78102825406293	1451.7641854762755	-321.81917353110316	57.403221557043516	1207.6732553897016	-104.34329416020562	89.72788351300775	1559.63842209812	-339.7076118506905	21.58595728973038	1562.4958967443554	-325.24942881462994	-9.481712819122802	1551.2536827621975	-214.27778713149914	159.86976115243252	1540.8247591487334	-247.8279549588247	63.62258260707876	1425.302359010858	-141.50275719569538	57.5714664971579	1306.4656485170258	-98.14504859539822	65.58116804025546	1058.8859962973856	-129.10006959862775	57.73272783273848	1198.984519420469	-117.78496226583049	215.65455805176936	1251.64377412501	-314.3628036124176	277.84260128172366	1203.6428849140138	-273.1760730525466	-109.50864607283955	1305.14767706297	-232.30794625543953	-106.82752342444395	1166.561976993073	-264.5632761184499	102.70023386481091	1017.621408158689	-283.4767244571731	67.47221671130809	1124.871793617325	-333.3317990056973	9.5649870215554	1255.2093337820154	-303.43979744796394	-3.308987423396581	1053.7114115851555	-290.810603434829	142.3186338712138	1293.0549038255213	-302.1350905088164	136.72053975691225	662.0151950453096	-204.7223696018345	235.00566748148552	632.1894863139856	-180.0459865155376	-2.482493282481429	588.4011060800221	-199.58939135828024	-147.7029804826338	767.8177197095184	-207.9623866484098	-154.32480592150102	204.5173151972367	-157.77560715772495	-23.496038733990538	329.3191928772552	-171.48123413348807	239.81580995585205	331.8593727693971	-161.44151602451714	149.6484981071878	283.1043200671847	-167.15598234129214	265.71450199519717	34.84416612401857	-338.547789120921	286.00347960396084	41.9106222133082	-319.5394384333913	220.07195792100393	48.27285952574569	-282.11596811325376	251.99006905193755	62.287088211145075	-265.130916624993	282.2187037878358	55.87512595449936	-248.70389890342332	-169.9809354288958	32.98322976703819	-324.66340955464193	-174.89458151214603	64.36587920327831	-218.90456965781948	-183.869054516673	34.105140138668304	-315.35388227487283	-152.856256774254	31.574252284684377	-335.46003795059295	-152.4776105464905	47.74335529676031	-277.0234819760986	-118.34643016788554	57.29498907443018	-250.76302383561278	
95	3.1666666666666665	92.0463989029261	1694.184261176947	-203.18315820099642	54.32262214680604	1529.3392632059367	-335.56402951809196	64.8390468689906	1370.0427953554076	-193.2173753611692	217.59611014381315	1337.74314220608	-207.02884599229463	265.5990439199588	1124.9858694588008	-353.2633462150409	113.62557561784777	1291.177921861425	-402.8286950565982	-77.46280663357952	1331.0175735030066	-194.75197084365914	-132.9626954399543	1135.402488283782	-333.2781535899445	1.2814833256767633	1294.052903792607	-397.6981452426731	147.1350030804071	878.103561344794	-238.09093480576215	159.79579573512083	484.3823827855673	-165.3236120096357	213.84898211275083	109.54269331377364	-159.28682505687772	-41.66993043218016	870.8962018275092	-234.91823656249375	-50.59887105093047	481.51555240234734	-164.8278914894522	-100.95438989305555	104.79933601507369	-154.51775244330807	215.0216571677814	54.95056180569967	-142.59227914672252	-110.25695220726433	43.567198503052815	-130.38245788708883	244.73367081921953	36.576736505476795	-359.2650480508071	299.8331997666074	47.62118413481299	-292.92280620051093	-122.50895263526324	41.77107015062587	-355.4923418439967	-196.6042760327971	34.6232228349509	-292.4971694486045	-86.59724071926696	933.4428798774521	-265.75612849089026	190.0200722038522	940.8111559845082	-267.68902867700746	98.93504199996367	943.5542420188787	-139.57845530376062	4.662798061811871	940.1481989369133	-143.33778146278	56.41305616897704	1320.8223808948646	-437.89465349765777	68.97861798577487	1365.3103496132046	-410.8397177133931	52.79149234836843	1328.5295954747626	-442.1131596171614	48.341972187033136	1368.240232362971	-406.6305665330283	-101.46676306576975	477.4478790704544	-155.77546768394302	112.44327691501785	1271.4045056067635	-424.02482887242616	-153.25407275080659	97.24217581871103	-143.9499959044325	181.70746259285306	95.37879573981184	-172.04696229019092	204.32174302673295	475.9216036900253	-160.31167597152714	67.31466335127251	1208.8880754840366	-297.6152814973816	-75.0043366879227	89.56698513169292	-171.11769002178872	118.95794108286366	474.14175763423384	-178.30667988021747	-114.5955863889059	1122.528870930731	-307.94982655580725	60.577905360037654	993.8942014167727	-326.41040920537785	289.6822471772727	1151.2340018236457	-371.7824670769332	122.25830062225815	1297.877067102173	-372.7600645829691	-5.986582127328472	1277.5970851278	-422.04373141657493	-157.63291354847166	1161.9634385201216	-342.6545291283423	-13.506357462558363	472.70811225714476	-198.63387232813844	241.79227514365314	1110.3881101237664	-328.9763327553423	261.8752925766973	98.45326570780017	-162.35026427328663	-10.290946930927774	1304.2649103427282	-372.984940665392	53.938539182214804	1451.601733783163	-321.8493271941785	57.19494357545527	1207.6846697786757	-104.28701490953388	88.9334524668309	1559.4655479482383	-339.7066361379497	20.764176059495522	1562.3364738402065	-325.3806504441197	-10.518538842083355	1551.135443130633	-214.46527090416566	158.89589862331027	1540.6738896643185	-247.68577997117492	63.48557003802499	1425.339971815061	-141.2806684471748	57.33148634837527	1306.472834637719	-98.02096877828345	65.46343393404489	1058.9155202925776	-129.12242179904683	57.563054279161626	1199.0051538551338	-117.73363702935755	217.54306244818602	1251.4554788095195	-314.4028016895445	279.62596476120154	1203.5525564994698	-272.94429068663607	-110.60222344376639	1304.7487515644486	-232.51335194248819	-108.01526606826519	1166.217418262161	-265.0090183015361	103.01715787950775	1017.7616346527027	-283.42348583240477	67.91201213940295	1125.0409072111215	-333.303073378162	9.902874332338738	1255.3496406731028	-303.4831589237758	-2.9765773389299337	1053.8412880515116	-291.02715806225245	142.6468344457875	1293.2135272109385	-301.78394332597844	136.5512516106595	662.029093389913	-204.6907340671227	234.76030355825705	632.1045370474419	-179.83180893662882	-2.8418318321967657	588.5078499834389	-199.5175771092753	-147.8368671720663	768.0682760321586	-208.6778894973059	-154.92765563813012	204.68292862232323	-158.1604351784381	-24.062807909646434	329.5033530125298	-171.3427146137406	239.42669801211474	331.8600947834742	-161.32195020234593	149.27466602435896	283.08718495857704	-167.12443337650708	265.6007911431547	34.90935176556212	-338.40804445876074	285.8638240537922	41.98192181148293	-319.3743096665859	219.88531211103273	48.30010071746556	-282.02626657215666	251.77614696348493	62.32709700293057	-265.0005675999165	281.9889862954928	55.92714673937771	-248.53984145177543	-169.61994240409956	33.035892866261314	-325.0900251515901	-175.14410962579728	64.44186270335507	-219.36824189530284	-183.55958772597907	34.14336379313936	-315.856086160166	-152.4353903525278	31.64490939919837	-335.7934525032358	-152.39269844973322	47.83069104846589	-277.3603027580372	-118.41581110804475	57.43144674717911	-250.91830093911972	
96	3.2	93.67829133789975	1694.4966051224922	-204.93413926723443	52.47612963828255	1528.448068640281	-334.7490736271751	64.32514586470951	1370.1912864925155	-192.6796412474438	216.95231568532446	1336.0054816964007	-205.97811636694107	268.5529155389361	1124.2352198066849	-352.4199208057088	116.74505677360736	1290.5953900567683	-401.928757661404	-76.37180780231648	1329.7290240993977	-195.07849534886165	-134.14147195074452	1135.4147106070322	-334.5045187636826	0.8732949067480067	1293.9396235696684	-397.60962076601487	148.34152695510795	878.5987988356148	-238.3317374986847	158.8203477944311	484.86465524032764	-165.2881623895014	213.8177795386941	110.1668560145012	-158.97751151530954	-40.4420120564104	870.7394107647531	-235.447230351032	-50.38978408954047	481.4307860349873	-165.06739143612953	-102.01270566665505	104.9041958096964	-154.11815606042396	215.21952402599788	55.627745695086105	-142.18575018976946	-111.80834400063652	43.53897767109091	-130.0766045141611	243.82712031829485	36.78420930455953	-358.9667838772787	299.24375537998026	48.204783861342264	-292.95316405062994	-121.18203068293097	42.959056342054176	-355.33111642429554	-196.0869682848465	35.5832657071061	-293.32749998846936	-85.5384087788074	933.1750977034762	-266.2632281841182	191.05452579451872	941.4948462320932	-267.7783959182215	99.77267223343402	943.7446165167294	-139.7983662168014	5.518292836278471	940.0205518945023	-143.70130702176115	59.831680585404435	1320.4637858475182	-437.2902383743214	72.02665560226096	1364.7124727707687	-409.679035129029	52.49333275775524	1328.5651049082715	-441.78047693929744	48.33413745410837	1367.9464481179546	-405.89791536497955	-101.34603277916277	477.4195410224549	-156.51053378462467	115.82094250857119	1271.0260385461486	-423.32615011049177	-154.4353705715946	97.53998974510559	-144.03462251198812	181.631268872668	95.90445891757332	-171.51253979377637	203.2894865572426	476.1824325096322	-160.15211584400734	66.7084212661269	1209.276278646386	-297.44879447325724	-75.95076888491009	89.54196448752161	-170.42045658462715	117.96609268710914	474.82208153460203	-178.3739325392506	-115.74634669713805	1122.2406304257347	-309.35162932181197	60.4940977083784	994.3258988996786	-326.6827747679193	292.74544865413816	1150.7218154769253	-370.45057693752926	125.05599776943971	1297.0200194760914	-371.7099320206512	-6.532999004226575	1277.7669908556425	-422.1028661840998	-158.64801496648255	1162.2272743760536	-343.5894475342416	-12.971094592272234	472.5644133969612	-198.49433099468007	244.4735550285871	1109.3738394597233	-328.5653696349315	261.85064685692134	99.18821103160475	-162.3240877910325	-10.595059872224672	1303.970987988156	-372.77421726880226	51.79424989032298	1450.874323136132	-320.14725494658757	57.72217224799889	1207.6134033380324	-104.06793257170361	87.21687236808131	1558.2776908821297	-339.8420323854212	19.33302518251581	1561.7967113555103	-324.352483855157	-10.06167617719228	1552.0669062826971	-212.7837822212267	158.66239789410812	1540.0217786951553	-248.85869976094838	63.09750295678687	1425.3690060114245	-140.61292144875318	57.578037206399614	1306.3874193990073	-97.58283653992383	66.3232003430194	1058.9268866966372	-129.2823588342916	58.03959873474103	1198.9648292923441	-117.53576669572996	219.09371629751638	1250.2146597007388	-313.72819430333004	280.84577837839873	1202.5192543081175	-271.54269924613385	-109.91409336573072	1303.9560101059417	-232.8258221936258	-108.59667614364227	1165.6109170081463	-266.1798416622898	103.10687182286696	1018.2350920396124	-283.8911626176194	67.36656998917593	1125.5104713855635	-333.32607581519005	9.114407753891253	1255.5653109880666	-302.8781255634436	-3.044804715042572	1053.989463942461	-290.7959134702744	141.74373651518488	1293.8532111272336	-301.86914624717764	136.57802458384865	662.6015785460705	-204.82672674370792	234.5680933122522	632.1974345113057	-179.6871648640897	-2.2014390411547735	588.3543530574813	-199.38690662884247	-146.9486903760797	768.025483255067	-210.15428344775262	-155.6376637762304	204.9419522963916	-158.58198509872796	-24.264317233535543	329.31865033629657	-170.87019122998194	238.84385126604246	332.54161710384545	-161.53673905131657	148.77556688081071	283.5419770654052	-166.69366054573814	264.8125355926362	35.247955115136044	-338.21868155075157	285.1522662206599	42.44452184036207	-319.3136664679836	219.3539627965049	48.62335970967279	-281.6259367016553	251.28512908471913	62.811018080391506	-264.8102485711519	281.6095123629683	56.56435702879922	-248.49640372384124	-168.69010650139765	34.13039267158194	-325.5807051788259	-175.522944191297	64.98104697458976	-219.7719329622894	-182.74519696177538	35.20887757013025	-316.5199582269891	-151.37197041552207	32.77152283831641	-336.0708270359882	-152.05446418521524	48.645911492108006	-277.55627904607513	-118.40540501219837	58.056537640964905	-250.6311276841039	
